<svg id="visual" viewBox="0 0 960 540" width="960" height="540" xmlns="http://www.w3.org/2000/svg" xmlns:xlink="http://www.w3.org/1999/xlink" version="1.1"><g stroke-width="1" stroke-linejoin="bevel"><path d="M500.3 297L450.7 298L427.7 336Z" fill="#888277" stroke="#888277"></path><path d="M427.7 336L567.3 360L500.3 297Z" fill="#5f594f" stroke="#5f594f"></path><path d="M427.7 336L513.3 465L567.3 360Z" fill="#171103" stroke="#171103"></path><path d="M513.3 465L614 375L567.3 360Z" fill="#7a7469" stroke="#7a7469"></path><path d="M567.3 360L617 290L500.3 297Z" fill="#211d14" stroke="#211d14"></path><path d="M427.7 336L404.7 469L513.3 465Z" fill="#171103" stroke="#171103"></path><path d="M614 375L617 290L567.3 360Z" fill="#5f594f" stroke="#5f594f"></path><path d="M500.3 297L444.7 154L450.7 298Z" fill="#7a7469" stroke="#7a7469"></path><path d="M450.7 298L322 326L427.7 336Z" fill="#888277" stroke="#888277"></path><path d="M427.7 336L353 461L404.7 469Z" fill="#39342a" stroke="#39342a"></path><path d="M322 326L353 461L427.7 336Z" fill="#000000" stroke="#000000"></path><path d="M617 290L566.3 175L500.3 297Z" fill="#454036" stroke="#454036"></path><path d="M450.7 298L293 236L322 326Z" fill="#211d14" stroke="#211d14"></path><path d="M566.3 175L444.7 154L500.3 297Z" fill="#5f594f" stroke="#5f594f"></path><path d="M537.3 540L619 484L513.3 465Z" fill="#6c675c" stroke="#6c675c"></path><path d="M513.3 465L619 484L614 375Z" fill="#454036" stroke="#454036"></path><path d="M772.7 298L668 185L617 290Z" fill="#2d281f" stroke="#2d281f"></path><path d="M327 540L430.7 540L404.7 469Z" fill="#5f594f" stroke="#5f594f"></path><path d="M404.7 469L430.7 540L513.3 465Z" fill="#454036" stroke="#454036"></path><path d="M430.7 540L537.3 540L513.3 465Z" fill="#454036" stroke="#454036"></path><path d="M344 149L293 236L450.7 298Z" fill="#2d281f" stroke="#2d281f"></path><path d="M241.3 432L327 540L353 461Z" fill="#7a7469" stroke="#7a7469"></path><path d="M444.7 154L344 149L450.7 298Z" fill="#2d281f" stroke="#2d281f"></path><path d="M617 290L668 185L566.3 175Z" fill="#000000" stroke="#000000"></path><path d="M566.3 175L561.3 92L444.7 154Z" fill="#524d42" stroke="#524d42"></path><path d="M725.7 385L617 290L614 375Z" fill="#454036" stroke="#454036"></path><path d="M353 461L327 540L404.7 469Z" fill="#888277" stroke="#888277"></path><path d="M241.3 432L353 461L322 326Z" fill="#888277" stroke="#888277"></path><path d="M178.3 358L241.3 432L322 326Z" fill="#39342a" stroke="#39342a"></path><path d="M619 484L725.7 385L614 375Z" fill="#524d42" stroke="#524d42"></path><path d="M652 95L561.3 92L566.3 175Z" fill="#454036" stroke="#454036"></path><path d="M432.7 70L327 112L344 149Z" fill="#454036" stroke="#454036"></path><path d="M537.3 540L655 540L619 484Z" fill="#6c675c" stroke="#6c675c"></path><path d="M619 484L737.7 485L725.7 385Z" fill="#6c675c" stroke="#6c675c"></path><path d="M432.7 70L344 149L444.7 154Z" fill="#2d281f" stroke="#2d281f"></path><path d="M344 149L241.3 125L293 236Z" fill="#39342a" stroke="#39342a"></path><path d="M561.3 92L432.7 70L444.7 154Z" fill="#211d14" stroke="#211d14"></path><path d="M178.3 157L202.3 262L293 236Z" fill="#000000" stroke="#000000"></path><path d="M293 236L202.3 262L322 326Z" fill="#454036" stroke="#454036"></path><path d="M202.3 262L178.3 358L322 326Z" fill="#888277" stroke="#888277"></path><path d="M241.3 432L184.3 540L327 540Z" fill="#171103" stroke="#171103"></path><path d="M655 540L737.7 485L619 484Z" fill="#5f594f" stroke="#5f594f"></path><path d="M859.3 385L772.7 298L725.7 385Z" fill="#888277" stroke="#888277"></path><path d="M725.7 385L772.7 298L617 290Z" fill="#7a7469" stroke="#7a7469"></path><path d="M750.7 120L652 95L668 185Z" fill="#39342a" stroke="#39342a"></path><path d="M668 185L652 95L566.3 175Z" fill="#6c675c" stroke="#6c675c"></path><path d="M551.3 0L439.7 0L432.7 70Z" fill="#7a7469" stroke="#7a7469"></path><path d="M286 0L241.3 125L327 112Z" fill="#171103" stroke="#171103"></path><path d="M327 112L241.3 125L344 149Z" fill="#211d14" stroke="#211d14"></path><path d="M772.7 298L769.7 205L668 185Z" fill="#211d14" stroke="#211d14"></path><path d="M655 540L745.7 540L737.7 485Z" fill="#2d281f" stroke="#2d281f"></path><path d="M851.3 468L859.3 385L725.7 385Z" fill="#39342a" stroke="#39342a"></path><path d="M551.3 0L432.7 70L561.3 92Z" fill="#5f594f" stroke="#5f594f"></path><path d="M432.7 70L286 0L327 112Z" fill="#2d281f" stroke="#2d281f"></path><path d="M656 0L551.3 0L561.3 92Z" fill="#000000" stroke="#000000"></path><path d="M656 0L561.3 92L652 95Z" fill="#454036" stroke="#454036"></path><path d="M241.3 125L178.3 157L293 236Z" fill="#171103" stroke="#171103"></path><path d="M70.7 268L112.7 390L178.3 358Z" fill="#7a7469" stroke="#7a7469"></path><path d="M132.7 98L178.3 157L241.3 125Z" fill="#211d14" stroke="#211d14"></path><path d="M769.7 205L750.7 120L668 185Z" fill="#211d14" stroke="#211d14"></path><path d="M112.7 390L184.3 540L241.3 432Z" fill="#171103" stroke="#171103"></path><path d="M70.7 268L178.3 358L202.3 262Z" fill="#000000" stroke="#000000"></path><path d="M178.3 358L112.7 390L241.3 432Z" fill="#5f594f" stroke="#5f594f"></path><path d="M753.7 0L656 0L652 95Z" fill="#6c675c" stroke="#6c675c"></path><path d="M851.3 468L725.7 385L737.7 485Z" fill="#211d14" stroke="#211d14"></path><path d="M772.7 298L872.3 264L769.7 205Z" fill="#5f594f" stroke="#5f594f"></path><path d="M769.7 205L864.3 179L750.7 120Z" fill="#7a7469" stroke="#7a7469"></path><path d="M439.7 0L286 0L432.7 70Z" fill="#888277" stroke="#888277"></path><path d="M822.3 540L851.3 468L737.7 485Z" fill="#5f594f" stroke="#5f594f"></path><path d="M132.7 98L117.7 166L178.3 157Z" fill="#6c675c" stroke="#6c675c"></path><path d="M178.3 157L117.7 166L202.3 262Z" fill="#39342a" stroke="#39342a"></path><path d="M745.7 540L822.3 540L737.7 485Z" fill="#7a7469" stroke="#7a7469"></path><path d="M960 324L872.3 264L859.3 385Z" fill="#39342a" stroke="#39342a"></path><path d="M859.3 385L872.3 264L772.7 298Z" fill="#454036" stroke="#454036"></path><path d="M750.7 120L753.7 0L652 95Z" fill="#6c675c" stroke="#6c675c"></path><path d="M117.7 166L70.7 268L202.3 262Z" fill="#7a7469" stroke="#7a7469"></path><path d="M0 393L74.7 447L112.7 390Z" fill="#211d14" stroke="#211d14"></path><path d="M112.7 390L74.7 447L184.3 540Z" fill="#171103" stroke="#171103"></path><path d="M872.3 264L864.3 179L769.7 205Z" fill="#6c675c" stroke="#6c675c"></path><path d="M0 206L0 294L70.7 268Z" fill="#6c675c" stroke="#6c675c"></path><path d="M195.3 0L132.7 98L241.3 125Z" fill="#000000" stroke="#000000"></path><path d="M74.7 447L106.7 540L184.3 540Z" fill="#454036" stroke="#454036"></path><path d="M860.3 80L753.7 0L750.7 120Z" fill="#454036" stroke="#454036"></path><path d="M286 0L195.3 0L241.3 125Z" fill="#524d42" stroke="#524d42"></path><path d="M960 107L860.3 80L864.3 179Z" fill="#211d14" stroke="#211d14"></path><path d="M864.3 179L860.3 80L750.7 120Z" fill="#888277" stroke="#888277"></path><path d="M0 206L117.7 166L0 98Z" fill="#171103" stroke="#171103"></path><path d="M0 206L70.7 268L117.7 166Z" fill="#211d14" stroke="#211d14"></path><path d="M70.7 268L0 294L112.7 390Z" fill="#454036" stroke="#454036"></path><path d="M74.7 447L0 540L106.7 540Z" fill="#7a7469" stroke="#7a7469"></path><path d="M0 294L0 393L112.7 390Z" fill="#000000" stroke="#000000"></path><path d="M960 433L960 324L859.3 385Z" fill="#6c675c" stroke="#6c675c"></path><path d="M872.3 264L960 262L864.3 179Z" fill="#000000" stroke="#000000"></path><path d="M960 433L859.3 385L851.3 468Z" fill="#171103" stroke="#171103"></path><path d="M960 324L960 262L872.3 264Z" fill="#171103" stroke="#171103"></path><path d="M0 393L0 463L74.7 447Z" fill="#7a7469" stroke="#7a7469"></path><path d="M960 540L960 433L851.3 468Z" fill="#000000" stroke="#000000"></path><path d="M0 98L117.7 166L132.7 98Z" fill="#5f594f" stroke="#5f594f"></path><path d="M960 0L847.3 0L860.3 80Z" fill="#5f594f" stroke="#5f594f"></path><path d="M860.3 80L847.3 0L753.7 0Z" fill="#7a7469" stroke="#7a7469"></path><path d="M195.3 0L103.7 0L132.7 98Z" fill="#7a7469" stroke="#7a7469"></path><path d="M960 262L960 163L864.3 179Z" fill="#888277" stroke="#888277"></path><path d="M0 463L0 540L74.7 447Z" fill="#454036" stroke="#454036"></path><path d="M822.3 540L960 540L851.3 468Z" fill="#000000" stroke="#000000"></path><path d="M103.7 0L0 98L132.7 98Z" fill="#7a7469" stroke="#7a7469"></path><path d="M960 163L960 107L864.3 179Z" fill="#524d42" stroke="#524d42"></path><path d="M103.7 0L0 0L0 98Z" fill="#2d281f" stroke="#2d281f"></path><path d="M960 107L960 0L860.3 80Z" fill="#454036" stroke="#454036"></path></g></svg>