<svg id="visual" viewBox="0 0 900 600" width="900" height="600" xmlns="http://www.w3.org/2000/svg" xmlns:xlink="http://www.w3.org/1999/xlink" version="1.1"><rect x="0" y="0" width="900" height="600" fill="#000000"></rect><path d="M0 464L10.7 451.2C21.3 438.3 42.7 412.7 64.2 404.2C85.7 395.7 107.3 404.3 128.8 414.3C150.3 424.3 171.7 435.7 193 419.2C214.3 402.7 235.7 358.3 257 354.2C278.3 350 299.7 386 321.2 408.3C342.7 430.7 364.3 439.3 385.8 434.8C407.3 430.3 428.7 412.7 450 416.3C471.3 420 492.7 445 514.2 437.8C535.7 430.7 557.3 391.3 578.8 376.7C600.3 362 621.7 372 643 376.7C664.3 381.3 685.7 380.7 707 394C728.3 407.3 749.7 434.7 771.2 423.2C792.7 411.7 814.3 361.3 835.8 347.5C857.3 333.7 878.7 356.3 889.3 367.7L900 379L900 601L889.3 601C878.7 601 857.3 601 835.8 601C814.3 601 792.7 601 771.2 601C749.7 601 728.3 601 707 601C685.7 601 664.3 601 643 601C621.7 601 600.3 601 578.8 601C557.3 601 535.7 601 514.2 601C492.7 601 471.3 601 450 601C428.7 601 407.3 601 385.8 601C364.3 601 342.7 601 321.2 601C299.7 601 278.3 601 257 601C235.7 601 214.3 601 193 601C171.7 601 150.3 601 128.8 601C107.3 601 85.7 601 64.2 601C42.7 601 21.3 601 10.7 601L0 601Z" fill="#888277" stroke-linecap="round" stroke-linejoin="miter"></path></svg>